<?xml version="1.0" encoding="UTF-8"?>
<svg width="50pt" height="50pt" version="1.1" viewBox="0 0 700 700" xmlns="http://www.w3.org/2000/svg">
 <path d="m526.96 280c0 2.9688-1.1797 5.8203-3.2812 7.918-2.1016 2.1016-4.9492 3.2812-7.918 3.2812h-192.91c-6.1875 0-11.199-5.0117-11.199-11.199s5.0117-11.199 11.199-11.199h192.91c2.9688 0 5.8164 1.1797 7.918 3.2812 2.1016 2.0977 3.2812 4.9492 3.2812 7.918zm-204.11-124.36h192.91c6.1836 0 11.199-5.0156 11.199-11.203 0-6.1836-5.0156-11.199-11.199-11.199h-192.91c-6.1875 0-11.199 5.0156-11.199 11.199 0 6.1875 5.0117 11.203 11.199 11.203zm192.89 248.64-192.89-0.003906c-6.1875 0-11.199 5.0156-11.199 11.203 0 6.1836 5.0117 11.199 11.199 11.199h192.91c6.1836 0 11.199-5.0156 11.199-11.199 0-6.1875-5.0156-11.203-11.199-11.203zm-241.9-124.28c0 13.359-5.3086 26.176-14.754 35.621-9.4492 9.4492-22.262 14.758-35.625 14.758-13.359 0-26.172-5.3086-35.621-14.758-9.4492-9.4453-14.754-22.262-14.754-35.621s5.3047-26.176 14.754-35.621c9.4492-9.4492 22.262-14.758 35.621-14.758 13.355 0.019531 26.16 5.332 35.605 14.777 9.4414 9.4414 14.754 22.246 14.773 35.602zm-22.398 0c0-7.4219-2.9492-14.535-8.1953-19.781-5.2461-5.25-12.363-8.1953-19.785-8.1953-7.418 0-14.535 2.9453-19.781 8.1953-5.2461 5.2461-8.1953 12.359-8.1953 19.781s2.9492 14.535 8.1953 19.781c5.2461 5.25 12.363 8.1953 19.781 8.1953 7.418-0.011718 14.527-2.9609 19.773-8.207 5.2422-5.2422 8.1953-12.352 8.207-19.77zm22.398 135.57c-0.019532 13.352-5.3359 26.152-14.789 35.586-9.4531 9.4375-22.266 14.73-35.617 14.723-13.355-0.007812-26.16-5.3164-35.602-14.762-9.4414-9.4453-14.746-22.254-14.746-35.609-0.003907-13.352 5.2969-26.164 14.734-35.609 9.4375-9.4492 22.242-14.762 35.598-14.773 13.375 0.003906 26.199 5.3203 35.656 14.781 9.4531 9.4609 14.766 22.289 14.766 35.664zm-22.398 0c0.003906-7.4219-2.9375-14.539-8.1758-19.789-5.2422-5.25-12.355-8.2031-19.773-8.2109-7.418-0.007812-14.535 2.9297-19.789 8.168-5.2539 5.2422-8.207 12.352-8.2188 19.77-0.007813 7.4219 2.9258 14.539 8.1641 19.793 5.2383 5.2539 12.352 8.2109 19.77 8.2227 7.4219 0.007813 14.543-2.9336 19.797-8.1758s8.2148-12.355 8.2266-19.777zm19.062-318.21c-4.375-4.375-11.465-4.375-15.84 0l-31.246 31.246-31.359-31.246c-4.3945-4.2461-11.383-4.1836-15.703 0.13672-4.3203 4.3203-4.3789 11.305-0.13281 15.699l31.359 31.359-31.359 31.246v0.003906c-4.2461 4.3945-4.1875 11.379 0.13281 15.699 4.3203 4.3203 11.309 4.3789 15.703 0.13672l31.359-31.359 31.246 31.359c4.3945 4.2422 11.383 4.1836 15.703-0.13672 4.3203-4.3203 4.3789-11.305 0.13672-15.699l-31.359-31.246 31.359-31.359v-0.003906c4.3711-4.375 4.3711-11.465 0-15.836z"/>
</svg>
