<?xml version="1.0" encoding="UTF-8"?>
<svg width="50pt" height="50pt" version="1.1" viewBox="0 0 700 700" xmlns="http://www.w3.org/2000/svg" xmlns:xlink="http://www.w3.org/1999/xlink">
 <defs>
  <symbol id="w" overflow="visible">
   <path d="m1.4688-0.09375c-0.074219 0.042969-0.15234 0.074219-0.23438 0.09375-0.085937 0.019531-0.16797 0.03125-0.25 0.03125-0.27344 0-0.48438-0.070312-0.64062-0.21875-0.15625-0.15625-0.23438-0.35938-0.23438-0.60938 0-0.25781 0.078125-0.46094 0.23438-0.60938 0.15625-0.15625 0.36719-0.23438 0.64062-0.23438 0.082031 0 0.16406 0.011719 0.25 0.03125 0.082031 0.023437 0.16016 0.054687 0.23438 0.09375v0.32812c-0.074219-0.050781-0.14844-0.085938-0.21875-0.10938-0.074219-0.019531-0.15234-0.03125-0.23438-0.03125-0.14844 0-0.26562 0.046875-0.35938 0.14062-0.085938 0.09375-0.125 0.22656-0.125 0.39062 0 0.16797 0.039062 0.29688 0.125 0.39062 0.09375 0.09375 0.21094 0.14062 0.35938 0.14062 0.082031 0 0.16016-0.007813 0.23438-0.03125 0.070312-0.03125 0.14453-0.070313 0.21875-0.125z"/>
  </symbol>
  <symbol id="d" overflow="visible">
   <path d="m1.0781-0.875c-0.03125-0.019531-0.070313-0.03125-0.10938-0.03125-0.03125-0.007812-0.0625-0.015625-0.09375-0.015625-0.09375 0-0.17188 0.03125-0.23438 0.09375-0.054687 0.0625-0.078125 0.15234-0.078125 0.26562v0.5625h-0.375v-1.2031h0.375v0.20312c0.050781-0.082031 0.10938-0.14062 0.17188-0.17188 0.070313-0.039063 0.14844-0.0625 0.23438-0.0625h0.03125c0.019531 0 0.046875 0.007813 0.078125 0.015625z"/>
  </symbol>
  <symbol id="b" overflow="visible">
   <path d="m1.3906-0.60938v0.10938h-0.90625c0.007813 0.09375 0.039063 0.16797 0.09375 0.21875 0.0625 0.042969 0.14062 0.0625 0.23438 0.0625 0.082031 0 0.16406-0.007812 0.25-0.03125 0.09375-0.03125 0.17969-0.070312 0.26562-0.125v0.29688c-0.09375 0.042969-0.1875 0.070312-0.28125 0.078125-0.085937 0.019531-0.17188 0.03125-0.26562 0.03125-0.21875 0-0.39062-0.050781-0.51562-0.15625-0.11719-0.11328-0.17188-0.26953-0.17188-0.46875 0-0.19531 0.054688-0.35156 0.17188-0.46875 0.125-0.11328 0.28906-0.17188 0.5-0.17188 0.1875 0 0.33594 0.058594 0.45312 0.17188 0.11328 0.11719 0.17188 0.26562 0.17188 0.45312zm-0.40625-0.125c0-0.070313-0.023437-0.12891-0.0625-0.17188-0.042969-0.050781-0.09375-0.078125-0.15625-0.078125-0.074219 0-0.13672 0.023437-0.1875 0.0625-0.042969 0.042969-0.074219 0.10547-0.09375 0.1875z"/>
  </symbol>
  <symbol id="c" overflow="visible">
   <path d="m0.71875-0.54688c-0.074219 0-0.13281 0.015625-0.17188 0.046875-0.042969 0.03125-0.0625 0.074219-0.0625 0.125 0 0.042969 0.015625 0.078125 0.046875 0.10938s0.078125 0.046875 0.14062 0.046875c0.070313 0 0.12891-0.023438 0.17188-0.078125 0.050781-0.050781 0.078125-0.11719 0.078125-0.20312v-0.046875zm0.59375-0.14062v0.6875h-0.39062v-0.17188c-0.054687 0.074219-0.10938 0.125-0.17188 0.15625s-0.14062 0.046875-0.23438 0.046875c-0.125 0-0.23047-0.035156-0.3125-0.10938-0.074219-0.070313-0.10938-0.16406-0.10938-0.28125 0-0.14453 0.046875-0.25 0.14062-0.3125 0.10156-0.0625 0.25781-0.09375 0.46875-0.09375h0.21875v-0.03125c0-0.0625-0.027344-0.10938-0.078125-0.14062-0.042969-0.03125-0.11719-0.046875-0.21875-0.046875-0.085938 0-0.16406 0.011719-0.23438 0.03125-0.0625 0.023437-0.125 0.046875-0.1875 0.078125v-0.29688c0.082031-0.019531 0.16406-0.035156 0.25-0.046875 0.082031-0.007812 0.16406-0.015625 0.25-0.015625 0.21875 0 0.375 0.042969 0.46875 0.125 0.09375 0.085937 0.14062 0.22656 0.14062 0.42188z"/>
  </symbol>
  <symbol id="a" overflow="visible">
   <path d="m0.60938-1.5469v0.34375h0.39062v0.28125h-0.39062v0.5c0 0.0625 0.007813 0.10547 0.03125 0.125 0.019531 0.011719 0.0625 0.015625 0.125 0.015625h0.20312v0.28125h-0.32812c-0.15625 0-0.26562-0.03125-0.32812-0.09375s-0.09375-0.17188-0.09375-0.32812v-0.5h-0.1875v-0.28125h0.1875v-0.34375z"/>
  </symbol>
  <symbol id="f" overflow="visible">
   <path d="m1-1.0312v-0.64062h0.39062v1.6719h-0.39062v-0.17188c-0.054688 0.074219-0.10938 0.125-0.17188 0.15625s-0.13672 0.046875-0.21875 0.046875c-0.14844 0-0.27344-0.054688-0.375-0.17188-0.09375-0.125-0.14062-0.27344-0.14062-0.45312 0-0.1875 0.046875-0.33594 0.14062-0.45312 0.10156-0.125 0.22656-0.1875 0.375-0.1875 0.082031 0 0.15625 0.015625 0.21875 0.046875s0.11719 0.085938 0.17188 0.15625zm-0.25 0.78125c0.082031 0 0.14453-0.023438 0.1875-0.078125 0.039062-0.0625 0.0625-0.14844 0.0625-0.26562 0-0.125-0.023438-0.21094-0.0625-0.26562-0.042969-0.0625-0.10547-0.09375-0.1875-0.09375-0.085938 0-0.14844 0.03125-0.1875 0.09375-0.042969 0.054687-0.0625 0.14062-0.0625 0.26562 0 0.11719 0.019531 0.20312 0.0625 0.26562 0.039062 0.054687 0.10156 0.078125 0.1875 0.078125z"/>
  </symbol>
  <symbol id="l" overflow="visible">
   <path d="m0.82812-0.25c0.082031 0 0.14453-0.023438 0.1875-0.078125 0.039063-0.0625 0.0625-0.14844 0.0625-0.26562 0-0.125-0.023437-0.21094-0.0625-0.26562-0.042969-0.0625-0.10547-0.09375-0.1875-0.09375-0.085937 0-0.15234 0.03125-0.20312 0.09375-0.042969 0.0625-0.0625 0.15234-0.0625 0.26562 0 0.10547 0.019531 0.1875 0.0625 0.25 0.050781 0.0625 0.11719 0.09375 0.20312 0.09375zm-0.26562-0.78125c0.0625-0.070312 0.125-0.125 0.1875-0.15625s0.13281-0.046875 0.21875-0.046875c0.14453 0 0.26562 0.0625 0.35938 0.1875 0.10156 0.11719 0.15625 0.26562 0.15625 0.45312 0 0.17969-0.054687 0.32812-0.15625 0.45312-0.09375 0.11719-0.21484 0.17188-0.35938 0.17188-0.085938 0-0.15625-0.015625-0.21875-0.046875s-0.125-0.082031-0.1875-0.15625v0.17188h-0.375v-1.6719h0.375z"/>
  </symbol>
  <symbol id="k" overflow="visible">
   <path d="m0.03125-1.2031h0.375l0.32812 0.8125 0.28125-0.8125h0.375l-0.5 1.3125c-0.054687 0.13281-0.11719 0.22656-0.1875 0.28125-0.0625 0.050781-0.15234 0.078125-0.26562 0.078125h-0.21875v-0.25h0.125c0.0625 0 0.10938-0.011719 0.14062-0.03125 0.03125-0.023438 0.050781-0.058594 0.0625-0.10938l0.015625-0.03125z"/>
  </symbol>
  <symbol id="j" overflow="visible">
   <path d="m1.3125-1.5625v0.34375c-0.085938-0.039062-0.16797-0.066406-0.25-0.078125-0.085938-0.019531-0.16406-0.03125-0.23438-0.03125-0.10547 0-0.18359 0.015625-0.23438 0.046875-0.042969 0.023438-0.0625 0.058594-0.0625 0.10938 0 0.042969 0.015625 0.078125 0.046875 0.10938 0.03125 0.023438 0.085937 0.042969 0.17188 0.0625l0.1875 0.03125c0.17578 0.03125 0.30078 0.085938 0.375 0.15625 0.070312 0.074219 0.10938 0.17969 0.10938 0.3125 0 0.17969-0.054687 0.3125-0.15625 0.40625-0.10547 0.085938-0.26562 0.125-0.48438 0.125-0.09375 0-0.19531-0.011719-0.29688-0.03125-0.10547-0.019531-0.21094-0.046875-0.3125-0.078125v-0.35938c0.10156 0.054688 0.20312 0.09375 0.29688 0.125s0.1875 0.046875 0.28125 0.046875c0.082031 0 0.14844-0.015625 0.20312-0.046875 0.050781-0.03125 0.078125-0.070312 0.078125-0.125 0-0.050781-0.023438-0.085938-0.0625-0.10938-0.03125-0.03125-0.09375-0.054687-0.1875-0.078125l-0.15625-0.046875c-0.16797-0.03125-0.28906-0.082031-0.35938-0.15625-0.074219-0.082031-0.10938-0.1875-0.10938-0.3125 0-0.15625 0.050781-0.27344 0.15625-0.35938 0.10156-0.09375 0.25391-0.14062 0.45312-0.14062 0.082031 0 0.17188 0.011719 0.26562 0.03125 0.09375 0.011719 0.1875 0.027344 0.28125 0.046875z"/>
  </symbol>
  <symbol id="v" overflow="visible">
   <path d="m0.20312-1.6094h0.53125l0.35938 0.85938 0.375-0.85938h0.51562v1.6094h-0.39062v-1.1719l-0.35938 0.85938h-0.26562l-0.375-0.85938v1.1719h-0.39062z"/>
  </symbol>
  <symbol id="i" overflow="visible">
   <path d="m0.17188-0.46875v-0.73438h0.39062v0.125 0.25 0.1875 0.20312c0.007812 0.042969 0.019531 0.074219 0.03125 0.09375 0.007812 0.03125 0.023438 0.054688 0.046875 0.0625 0.03125 0.011719 0.0625 0.015625 0.09375 0.015625 0.082031 0 0.14453-0.03125 0.1875-0.09375 0.050781-0.0625 0.078125-0.14453 0.078125-0.25v-0.59375h0.39062v1.2031h-0.39062v-0.17188c-0.0625 0.074219-0.125 0.125-0.1875 0.15625s-0.13672 0.046875-0.21875 0.046875c-0.13672 0-0.24219-0.039062-0.3125-0.125-0.074219-0.082031-0.10938-0.20703-0.10938-0.375z"/>
  </symbol>
  <symbol id="u" overflow="visible">
   <path d="m1.125-1.1719v0.29688c-0.085938-0.03125-0.16797-0.054688-0.25-0.078125-0.074219-0.019531-0.14062-0.03125-0.20312-0.03125-0.074219 0-0.13281 0.011719-0.17188 0.03125-0.03125 0.023437-0.046875 0.054687-0.046875 0.09375 0 0.03125 0.007813 0.058594 0.03125 0.078125 0.03125 0.011719 0.082031 0.015625 0.15625 0.015625l0.0625 0.015625c0.19531 0.023438 0.32812 0.0625 0.39062 0.125 0.070312 0.0625 0.10938 0.15234 0.10938 0.26562 0 0.13672-0.046875 0.23438-0.14062 0.29688s-0.23438 0.09375-0.42188 0.09375c-0.085937 0-0.16797-0.0078125-0.25-0.015625-0.085937-0.011719-0.17188-0.03125-0.26562-0.0625v-0.29688c0.082031 0.042969 0.16016 0.074219 0.23438 0.09375 0.082031 0.023438 0.16406 0.03125 0.25 0.03125 0.082031 0 0.14062-0.007812 0.17188-0.03125 0.039062-0.019531 0.0625-0.050781 0.0625-0.09375 0-0.039062-0.015625-0.066406-0.046875-0.078125-0.023437-0.019531-0.074219-0.035156-0.15625-0.046875h-0.0625c-0.16797-0.019531-0.28906-0.0625-0.35938-0.125-0.074219-0.0625-0.10938-0.14844-0.10938-0.26562 0-0.125 0.039063-0.21875 0.125-0.28125 0.09375-0.0625 0.22656-0.09375 0.40625-0.09375 0.070313 0 0.14453 0.007813 0.21875 0.015625 0.082031 0.011719 0.17188 0.027344 0.26562 0.046875z"/>
  </symbol>
  <symbol id="t" overflow="visible">
   <path d="m0.1875-1.6719h0.375v1.6719h-0.375z"/>
  </symbol>
  <symbol id="s" overflow="visible">
   <path d="m0.1875-1.2031h0.375v1.2031h-0.375zm0-0.46875h0.375v0.3125h-0.375z"/>
  </symbol>
  <symbol id="h" overflow="visible">
   <path d="m0.98438-1.6719v0.25h-0.21875c-0.054687 0-0.089844 0.011719-0.10938 0.03125-0.023438 0.023437-0.03125 0.058594-0.03125 0.10938v0.078125h0.32812v0.28125h-0.32812v0.92188h-0.39062v-0.92188h-0.1875v-0.28125h0.1875v-0.078125c0-0.13281 0.035156-0.23438 0.10938-0.29688 0.070312-0.0625 0.1875-0.09375 0.34375-0.09375z"/>
  </symbol>
  <symbol id="g" overflow="visible">
   <path d="m1.3906-0.73438v0.73438h-0.375v-0.5625c0-0.10156-0.007813-0.17188-0.015625-0.20312 0-0.039063-0.007812-0.070313-0.015625-0.09375-0.023437-0.03125-0.046875-0.050781-0.078125-0.0625-0.023438-0.007813-0.046875-0.015625-0.078125-0.015625-0.085937 0-0.15234 0.03125-0.20312 0.09375-0.042969 0.0625-0.0625 0.14844-0.0625 0.25v0.59375h-0.375v-1.6719h0.375v0.64062c0.0625-0.070312 0.125-0.125 0.1875-0.15625 0.070312-0.03125 0.14453-0.046875 0.21875-0.046875 0.14453 0 0.25 0.042969 0.3125 0.125 0.070312 0.085937 0.10938 0.21094 0.10938 0.375z"/>
  </symbol>
  <symbol id="e" overflow="visible">
   <path d="m0.76562-0.95312c-0.09375 0-0.16406 0.03125-0.20312 0.09375-0.042969 0.054687-0.0625 0.14062-0.0625 0.26562 0 0.11719 0.019531 0.20312 0.0625 0.26562 0.039062 0.054687 0.10938 0.078125 0.20312 0.078125 0.082031 0 0.14453-0.023438 0.1875-0.078125 0.039063-0.0625 0.0625-0.14844 0.0625-0.26562 0-0.125-0.023437-0.21094-0.0625-0.26562-0.042969-0.0625-0.10547-0.09375-0.1875-0.09375zm0-0.28125c0.19531 0 0.35156 0.058594 0.46875 0.17188 0.125 0.11719 0.1875 0.27344 0.1875 0.46875 0 0.19922-0.0625 0.35547-0.1875 0.46875-0.11719 0.10547-0.27344 0.15625-0.46875 0.15625-0.21094 0-0.375-0.050781-0.5-0.15625-0.11719-0.11328-0.17188-0.26953-0.17188-0.46875 0-0.19531 0.054688-0.35156 0.17188-0.46875 0.125-0.11328 0.28906-0.17188 0.5-0.17188z"/>
  </symbol>
  <symbol id="r" overflow="visible">
   <path d="m1.2969-1c0.050781-0.070312 0.10938-0.12891 0.17188-0.17188 0.070312-0.039063 0.14844-0.0625 0.23438-0.0625 0.13281 0 0.23828 0.042969 0.3125 0.125 0.070313 0.085937 0.10938 0.21094 0.10938 0.375v0.73438h-0.39062v-0.625-0.03125-0.046875c0-0.082031-0.015625-0.14062-0.046875-0.17188-0.023438-0.039062-0.058594-0.0625-0.10938-0.0625-0.074219 0-0.13281 0.03125-0.17188 0.09375-0.042969 0.054688-0.0625 0.13672-0.0625 0.25v0.59375h-0.39062v-0.625c0-0.13281-0.011719-0.21875-0.03125-0.25-0.023437-0.039062-0.0625-0.0625-0.125-0.0625-0.074219 0-0.13281 0.03125-0.17188 0.09375-0.042969 0.054688-0.0625 0.13672-0.0625 0.25v0.59375h-0.375v-1.2031h0.375v0.17188c0.050781-0.0625 0.10938-0.10938 0.17188-0.14062 0.0625-0.039063 0.12891-0.0625 0.20312-0.0625 0.082031 0 0.15625 0.023437 0.21875 0.0625 0.0625 0.042969 0.10938 0.10156 0.14062 0.17188z"/>
  </symbol>
  <symbol id="q" overflow="visible">
   <path d="m0.20312-1.6094h0.46875l0.57812 1.1094v-1.1094h0.39062v1.6094h-0.46875l-0.57812-1.1094v1.1094h-0.39062z"/>
  </symbol>
  <symbol id="p" overflow="visible">
   <path d="m1.3906-0.73438v0.73438h-0.375v-0.5625c0-0.10156-0.007813-0.17188-0.015625-0.20312 0-0.039063-0.007812-0.070313-0.015625-0.09375-0.023437-0.03125-0.046875-0.050781-0.078125-0.0625-0.023438-0.007813-0.046875-0.015625-0.078125-0.015625-0.085937 0-0.15234 0.03125-0.20312 0.09375-0.042969 0.0625-0.0625 0.14844-0.0625 0.25v0.59375h-0.375v-1.2031h0.375v0.17188c0.0625-0.070312 0.125-0.125 0.1875-0.15625 0.070312-0.03125 0.14453-0.046875 0.21875-0.046875 0.14453 0 0.25 0.042969 0.3125 0.125 0.070312 0.085937 0.10938 0.21094 0.10938 0.375z"/>
  </symbol>
  <symbol id="o" overflow="visible">
   <path d="m0.20312-1.6094h0.6875c0.20703 0 0.36328 0.046875 0.46875 0.14062 0.11328 0.09375 0.17188 0.22656 0.17188 0.39062 0 0.16797-0.058594 0.29688-0.17188 0.39062-0.10547 0.085938-0.26172 0.125-0.46875 0.125h-0.28125v0.5625h-0.40625zm0.40625 0.29688v0.45312h0.23438c0.082031 0 0.14453-0.015625 0.1875-0.046875 0.039062-0.039062 0.0625-0.097656 0.0625-0.17188 0-0.070313-0.023438-0.12891-0.0625-0.17188-0.042969-0.039062-0.10547-0.0625-0.1875-0.0625z"/>
  </symbol>
  <symbol id="n" overflow="visible">
   <path d="m0.1875-1.2031h0.375v1.1875c0 0.15625-0.039062 0.27344-0.10938 0.35938-0.074219 0.082031-0.18359 0.125-0.32812 0.125h-0.20312v-0.25h0.078125c0.070312 0 0.11719-0.015625 0.14062-0.046875 0.03125-0.03125 0.046875-0.09375 0.046875-0.1875zm0-0.46875h0.375v0.3125h-0.375z"/>
  </symbol>
  <symbol id="m" overflow="visible">
   <path d="m1.1562-1.1719v0.3125c-0.054688-0.03125-0.10547-0.050781-0.15625-0.0625-0.054688-0.019531-0.10547-0.03125-0.15625-0.03125-0.11719 0-0.20312 0.03125-0.26562 0.09375-0.054687 0.0625-0.078125 0.15234-0.078125 0.26562 0 0.10547 0.023438 0.1875 0.078125 0.25 0.0625 0.0625 0.14844 0.09375 0.26562 0.09375 0.050781 0 0.10156-0.003906 0.15625-0.015625 0.0625-0.019531 0.11328-0.046875 0.15625-0.078125v0.3125c-0.0625 0.023438-0.125 0.035156-0.1875 0.046875-0.0625 0.0078125-0.125 0.015625-0.1875 0.015625-0.21094 0-0.375-0.050781-0.5-0.15625-0.125-0.11328-0.1875-0.26953-0.1875-0.46875 0-0.20703 0.0625-0.36328 0.1875-0.46875 0.125-0.11328 0.28906-0.17188 0.5-0.17188 0.070312 0 0.13281 0.007813 0.1875 0.015625 0.0625 0.011719 0.125 0.027344 0.1875 0.046875z"/>
  </symbol>
 </defs>
 <g>
  <path d="m420.54 224.95c33.793 0 64.398 13.703 86.547 35.852 22.148 22.148 35.859 52.754 35.859 86.547 0 33.797-13.707 64.406-35.859 86.547-22.148 22.148-52.754 35.859-86.547 35.859-33.793 0-64.398-13.707-86.547-35.859-22.148-22.145-35.852-52.754-35.852-86.547 0-4.6914 0.26562-9.3203 0.77734-13.871-17.613 2.8281-35.742 1.7852-52.988-3.1133-19.43-5.5195-37.746-15.914-53-31.172-23.902-23.898-35.859-55.227-35.859-86.547 0-31.32 11.953-62.648 35.859-86.555 23.902-23.898 55.223-35.852 86.543-35.852s62.648 11.953 86.547 35.852l0.3125 0.33594c14.383 14.488 24.406 31.699 30.055 49.965 5.0234 16.238 6.582 33.332 4.6836 50.102 6.3438-1.0156 12.844-1.543 19.473-1.543zm-119.5 95.82c5.1211-23.129 16.785-43.801 32.957-59.969 14.879-14.879 33.578-25.949 54.492-31.613 2.4766-16.406 1.2461-33.277-3.6875-49.242-5.0859-16.438-14.109-31.934-27.074-44.984l-0.30078-0.27734c-21.52-21.52-49.738-32.285-77.953-32.285-28.211 0-56.426 10.77-77.949 32.285-21.523 21.527-32.285 49.742-32.285 77.961 0 28.215 10.762 56.434 32.285 77.953 13.762 13.762 30.238 23.129 47.68 28.078 16.875 4.793 34.688 5.4883 51.836 2.0898zm197.46-51.375c-19.945-19.945-47.512-32.285-77.953-32.285-30.445 0-58.012 12.344-77.953 32.285-19.945 19.945-32.285 47.508-32.285 77.953 0 30.441 12.344 58.012 32.285 77.961 19.945 19.945 47.508 32.285 77.953 32.285 30.445 0 58.012-12.344 77.953-32.285 19.949-19.949 32.285-47.512 32.285-77.961 0-30.445-12.336-58.012-32.285-77.953z"/>
  <path d="m392.39 283.48 28.141 28.141 28.141-28.141c2.3711-2.375 6.2266-2.375 8.5977 0l27.137 27.133c2.3711 2.375 2.3711 6.2266 0 8.6016l-28.141 28.141 28.141 28.141c2.3711 2.3711 2.3711 6.2266 0 8.5977l-27.137 27.137c-2.3711 2.3711-6.2266 2.3711-8.5977 0l-28.141-28.141-28.141 28.141c-2.375 2.3711-6.2305 2.3711-8.6016 0l-27.137-27.137c-2.3711-2.3711-2.3711-6.2266 0-8.5977l28.145-28.141-28.145-28.141c-2.3711-2.375-2.3711-6.2266 0-8.6016l27.137-27.133c2.3711-2.375 6.2266-2.375 8.6016 0zm23.844 41.039-28.145-28.141-18.531 18.531 28.141 28.145c2.3711 2.3711 2.3711 6.2266 0 8.5977l-28.141 28.141 18.531 18.539 28.145-28.145c2.3711-2.3711 6.2266-2.3711 8.5977 0l28.141 28.145 18.539-18.539-28.145-28.141c-2.3711-2.3711-2.3711-6.2266 0-8.5977l28.145-28.145-18.539-18.531-28.141 28.141c-2.3711 2.375-6.2266 2.375-8.5977 0z"/>
  <path d="m267.54 276.52 92.02-92.02c2.3711-2.3711 2.3711-6.2266 0-8.5977l-27.137-27.137c-2.3711-2.3711-6.2266-2.3711-8.5977 0l-60.586 60.586-28.141-28.141c-2.3711-2.375-6.2266-2.375-8.5977 0l-27.137 27.133c-2.3711 2.375-2.3711 6.2266 0 8.6016l59.574 59.574c2.3711 2.3711 6.2266 2.3711 8.5977 0zm18.539-35.734-22.836 22.832-50.977-50.977 18.539-18.531 28.141 28.141c2.3711 2.375 6.2266 2.375 8.5977 0l60.586-60.582 18.539 18.531-60.586 60.586z"/>
  <use x="70" y="566.613281" xlink:href="#w"/>
  <use x="71.617188" y="566.613281" xlink:href="#d"/>
  <use x="72.707031" y="566.613281" xlink:href="#b"/>
  <use x="74.199219" y="566.613281" xlink:href="#c"/>
  <use x="75.6875" y="566.613281" xlink:href="#a"/>
  <use x="76.742188" y="566.613281" xlink:href="#b"/>
  <use x="78.238281" y="566.613281" xlink:href="#f"/>
  <use x="80.582031" y="566.613281" xlink:href="#l"/>
  <use x="82.160156" y="566.613281" xlink:href="#k"/>
  <use x="84.367188" y="566.613281" xlink:href="#j"/>
  <use x="85.953125" y="566.613281" xlink:href="#a"/>
  <use x="87.777344" y="566.613281" xlink:href="#v"/>
  <use x="89.96875" y="566.613281" xlink:href="#i"/>
  <use x="91.539062" y="566.613281" xlink:href="#u"/>
  <use x="92.851562" y="566.613281" xlink:href="#f"/>
  <use x="94.429688" y="566.613281" xlink:href="#c"/>
  <use x="95.917969" y="566.613281" xlink:href="#t"/>
  <use x="96.671875" y="566.613281" xlink:href="#s"/>
  <use x="97.429688" y="566.613281" xlink:href="#h"/>
  <use x="98.386719" y="566.613281" xlink:href="#c"/>
  <use x="99.875" y="566.613281" xlink:href="#g"/>
  <use x="70" y="568.820312" xlink:href="#h"/>
  <use x="70.960938" y="568.820312" xlink:href="#d"/>
  <use x="72.046875" y="568.820312" xlink:href="#e"/>
  <use x="73.5625" y="568.820312" xlink:href="#r"/>
  <use x="76.625" y="568.820312" xlink:href="#a"/>
  <use x="77.679688" y="568.820312" xlink:href="#g"/>
  <use x="79.25" y="568.820312" xlink:href="#b"/>
  <use x="81.511719" y="568.820312" xlink:href="#q"/>
  <use x="83.359375" y="568.820312" xlink:href="#e"/>
  <use x="84.871094" y="568.820312" xlink:href="#i"/>
  <use x="86.441406" y="568.820312" xlink:href="#p"/>
  <use x="88.777344" y="568.820312" xlink:href="#o"/>
  <use x="90.394531" y="568.820312" xlink:href="#d"/>
  <use x="91.480469" y="568.820312" xlink:href="#e"/>
  <use x="92.996094" y="568.820312" xlink:href="#n"/>
  <use x="93.753906" y="568.820312" xlink:href="#b"/>
  <use x="95.246094" y="568.820312" xlink:href="#m"/>
  <use x="96.554688" y="568.820312" xlink:href="#a"/>
 </g>
</svg>
